PathFileType	4	(X/Y/Z) abd_0kg_3.trc																										
DataRate	CameraRate	NumFrames	NumMarkers	Units	OrigDataRate	OrigDataStartFrame	OrigNumFrames																					
100	100	34	9	mm	100	197	787																					
Frame#	Time	gu			centelbow			EpL			centpxt8			centijc7			ij			ts			aa			ai		
		X1	Y1	Z1	X2	Y2	Z2	X3	Y3	Z3	X4	Y4	Z4	X5	Y5	Z5	X6	Y6	Z6	X7	Y7	Z7	X8	Y8	Z8	X9	Y9	Z9  
196	1.96	-105.223	60.411	122.849	-182.607	140.014	343.438	-198.168	161.908	325.608	-46.816	-153.158	-8.669	-46.816	31.938	-8.669	0	0	0	-125.205	-8.77	29.126	-145.081	74.162	112.505	-128.608	-85.825	112.412
197	1.97	-105.818	60.456	122.724	-183.57	142.2	342.399	-199.017	163.984	324.336	-46.816	-153.158	-8.669	-46.816	31.938	-8.669	0	0	0	-125.738	-9.159	29.535	-145.689	74.138	112.532	-129.463	-85.873	113.122
198	1.98	-106.377	60.706	122.51	-184.518	144.616	341.228	-199.865	166.272	322.928	-46.816	-153.158	-8.669	-46.816	31.938	-8.669	0	0	0	-126.104	-9.508	30.054	-146.156	74.144	112.668	-130.185	-85.889	113.929
199	1.99	-106.691	61.191	122.105	-185.143	147.275	339.864	-200.428	168.775	321.33	-46.816	-153.158	-8.669	-46.816	31.938	-8.669	0	0	0	-126.325	-9.628	30.366	-146.491	74.386	112.584	-130.683	-85.656	114.547
200	2	-106.878	61.554	121.746	-185.559	149.814	338.55	-200.812	171.137	319.785	-46.816	-153.158	-8.669	-46.816	31.938	-8.669	0	0	0	-126.48	-9.653	30.41	-146.762	74.736	112.215	-131.003	-85.3	114.924
201	2.01	-107.132	61.42	121.605	-185.965	151.863	337.451	-201.193	173.004	318.463	-46.816	-153.158	-8.669	-46.816	31.938	-8.669	0	0	0	-126.53	-9.828	30.384	-146.911	74.933	111.778	-131.154	-85.089	115.236
202	2.02	-107.331	61.196	121.419	-186.206	153.785	336.338	-201.423	174.742	317.137	-46.816	-153.158	-8.669	-46.816	31.938	-8.669	0	0	0	-126.5	-10.072	30.334	-146.955	75.038	111.346	-131.199	-84.967	115.506
203	2.03	-107.322	61.504	121.029	-186.193	156.16	335.048	-201.423	176.921	315.645	-46.816	-153.158	-8.669	-46.816	31.938	-8.669	0	0	0	-126.58	-10.157	30.159	-147.1	75.286	110.802	-131.345	-84.701	115.635
204	2.04	-107.278	62.197	120.735	-186.205	158.896	333.817	-201.452	179.454	314.212	-46.816	-153.158	-8.669	-46.816	31.938	-8.669	0	0	0	-126.903	-10.089	29.955	-147.515	75.692	110.215	-131.763	-84.272	115.739
205	2.05	-107.397	62.87	120.62	-186.417	161.678	332.698	-201.665	182.033	312.884	-46.816	-153.158	-8.669	-46.816	31.938	-8.669	0	0	0	-127.297	-9.939	29.936	-148.027	76.19	109.792	-132.282	-83.748	116.035
206	2.06	-107.526	63.582	120.331	-186.551	164.564	331.381	-201.786	184.723	311.358	-46.816	-153.158	-8.669	-46.816	31.938	-8.669	0	0	0	-127.403	-9.71	30.164	-148.237	76.773	109.609	-132.521	-83.139	116.581
207	2.07	-107.388	64.455	119.739	-186.251	167.617	329.792	-201.464	187.597	309.574	-46.816	-153.158	-8.669	-46.816	31.938	-8.669	0	0	0	-127.203	-9.505	30.554	-148.067	77.348	109.586	-132.464	-82.541	117.293
208	2.08	-107.062	65.208	119.205	-185.611	170.527	328.304	-200.775	190.358	307.903	-46.816	-153.158	-8.669	-46.816	31.938	-8.669	0	0	0	-127.12	-9.411	30.959	-147.899	77.832	109.583	-132.547	-82.043	118.027
209	2.09	-106.901	65.44	119.128	-185.048	172.908	327.281	-200.127	192.623	306.704	-46.816	-153.158	-8.669	-46.816	31.938	-8.669	0	0	0	-127.454	-9.465	31.333	-148.045	78.179	109.559	-133.094	-81.695	118.721
210	2.1	-107.063	65.046	119.518	-184.812	174.676	326.691	-199.769	194.295	305.936	-46.816	-153.158	-8.669	-46.816	31.938	-8.669	0	0	0	-128.099	-9.793	31.806	-148.458	78.261	109.632	-134.045	-81.621	119.504
211	2.11	-107.438	64.294	120.018	-184.865	176.104	326.144	-199.688	195.627	305.202	-46.816	-153.158	-8.669	-46.816	31.938	-8.669	0	0	0	-128.774	-10.337	32.351	-148.938	78.155	109.73	-135.111	-81.728	120.378
212	2.12	-107.774	63.717	120.178	-184.96	177.718	325.191	-199.671	197.117	304.055	-46.816	-153.158	-8.669	-46.816	31.938	-8.669	0	0	0	-129.154	-10.702	32.625	-149.204	78.263	109.488	-135.848	-81.599	121.024
213	2.13	-107.816	63.75	119.83	-184.804	179.919	323.697	-199.453	199.153	302.369	-46.816	-153.158	-8.669	-46.816	31.938	-8.669	0	0	0	-129.011	-10.633	32.437	-149.02	78.812	108.752	-135.928	-81	121.242
214	2.14	-107.66	64.305	119.245	-184.485	182.559	321.972	-199.115	201.599	300.457	-46.816	-153.158	-8.669	-46.816	31.938	-8.669	0	0	0	-128.603	-10.408	32.078	-148.61	79.48	107.872	-135.648	-80.269	121.272
215	2.15	-107.643	64.995	118.761	-184.339	185.209	320.381	-198.967	204.05	298.692	-46.816	-153.158	-8.669	-46.816	31.938	-8.669	0	0	0	-128.52	-10.507	31.961	-148.529	79.772	107.288	-135.704	-79.918	121.494
216	2.16	-107.807	65.553	118.466	-184.35	187.622	319.028	-198.975	206.277	297.176	-46.816	-153.158	-8.669	-46.816	31.938	-8.669	0	0	0	-128.904	-10.951	32.133	-148.912	79.688	107.027	-136.266	-79.949	121.97
217	2.17	-107.973	65.767	118.307	-184.264	189.659	317.843	-198.871	208.147	295.837	-46.816	-153.158	-8.669	-46.816	31.938	-8.669	0	0	0	-129.324	-11.386	32.397	-149.342	79.606	106.859	-136.862	-79.974	122.533
218	2.18	-108.123	65.553	118.197	-184.079	191.304	316.696	-198.647	209.64	294.537	-46.816	-153.158	-8.669	-46.816	31.938	-8.669	0	0	0	-129.475	-11.718	32.739	-149.526	79.621	106.766	-137.185	-79.896	123.171
219	2.19	-108.267	65.166	118.13	-183.89	192.789	315.557	-198.405	210.979	293.244	-46.816	-153.158	-8.669	-46.816	31.938	-8.669	0	0	0	-129.48	-12.06	33.226	-149.584	79.618	106.818	-137.372	-79.833	123.946
220	2.2	-108.251	64.951	118.137	-183.569	194.378	314.504	-198.037	212.42	292.042	-46.816	-153.158	-8.669	-46.816	31.938	-8.669	0	0	0	-129.557	-12.313	33.684	-149.725	79.706	106.831	-137.617	-79.672	124.697
221	2.21	-108.087	65.154	117.954	-183.064	196.275	313.326	-197.513	214.163	290.728	-46.816	-153.158	-8.669	-46.816	31.938	-8.669	0	0	0	-129.749	-12.364	33.894	-149.986	80.002	106.585	-137.945	-79.294	125.211
222	2.22	-108.097	65.82	117.329	-182.697	198.56	311.749	-197.162	216.279	289.029	-46.816	-153.158	-8.669	-46.816	31.938	-8.669	0	0	0	-129.988	-12.376	33.921	-150.284	80.331	106.16	-138.292	-78.879	125.54
223	2.23	-108.411	66.576	116.612	-182.668	200.899	310.074	-197.159	218.442	287.234	-46.816	-153.158	-8.669	-46.816	31.938	-8.669	0	0	0	-130.209	-12.534	34.002	-150.556	80.502	105.8	-138.606	-78.62	125.913
224	2.24	-108.705	66.915	116.281	-182.632	202.82	308.762	-197.129	220.198	285.8	-46.816	-153.158	-8.669	-46.816	31.938	-8.669	0	0	0	-130.343	-12.763	34.229	-150.741	80.596	105.593	-138.827	-78.436	126.429
225	2.25	-108.685	66.829	116.221	-182.196	204.342	307.717	-196.684	221.569	284.635	-46.816	-153.158	-8.669	-46.816	31.938	-8.669	0	0	0	-130.351	-12.879	34.495	-150.792	80.797	105.429	-138.92	-78.143	126.977
226	2.26	-108.407	66.769	116.032	-181.403	205.899	306.554	-195.891	222.973	283.359	-46.816	-153.158	-8.669	-46.816	31.938	-8.669	0	0	0	-130.36	-12.888	34.712	-150.822	81.106	105.219	-139.02	-77.741	127.474
227	2.27	-108.117	66.875	115.692	-180.56	207.572	305.272	-195.065	224.489	281.973	-46.816	-153.158	-8.669	-46.816	31.938	-8.669	0	0	0	-130.557	-12.984	34.954	-151.015	81.332	105.031	-139.324	-77.423	127.994
228	2.28	-108.045	66.879	115.503	-179.944	209.047	304.191	-194.47	225.813	280.797	-46.816	-153.158	-8.669	-46.816	31.938	-8.669	0	0	0	-130.836	-13.224	35.241	-151.281	81.412	104.889	-139.715	-77.249	128.555
229	2.29	-108.199	66.854	115.546	-179.589	210.411	303.374	-194.136	227.033	279.89	-46.816	-153.158	-8.669	-46.816	31.938	-8.669	0	0	0	-130.848	-13.368	35.424	-151.301	81.573	104.653	-139.806	-76.988	129.008
